# 3ds Max Wavefront OBJ Exporter v0.97b - (c)2007 guruware
# File Created: 05.11.2018 21:23:24

mtllib shampur_metal_and_anime_obj.mtl

#
# object Box001
#

v  -0.7621 30.4246 -2.6304
v  -0.7621 99.3634 -2.6304
v  0.0073 99.3634 -2.6304
v  0.0073 30.4246 -2.6304
v  -0.7621 30.4246 0.7735
v  0.0073 30.4246 0.7735
v  0.0073 99.3634 0.7735
v  -0.7621 99.3634 0.7735
v  -0.2340 118.1590 -0.9284
v  -0.5208 118.1590 -0.9284
v  3.1021 0.2251 -0.9644
v  1.4539 0.2251 -3.8192
v  2.3392 7.0369 -5.3527
v  4.8729 7.0369 -0.9644
v  -1.8426 0.2251 -3.8192
v  -2.7280 7.0369 -5.3527
v  -3.4908 0.2251 -0.9644
v  -5.2616 7.0369 -0.9644
v  -1.8426 0.2251 1.8904
v  -2.7280 7.0369 3.4240
v  1.4539 0.2251 1.8904
v  2.3392 7.0369 3.4240
v  2.5003 16.7280 -5.6316
v  2.3312 20.1421 -5.3388
v  4.8568 20.1421 -0.9644
v  5.1949 16.7280 -0.9644
v  -2.8890 16.7280 -5.6316
v  -2.7199 20.1421 -5.3388
v  -5.5836 16.7280 -0.9644
v  -5.2455 20.1421 -0.9644
v  -2.8890 16.7280 3.7029
v  -2.7199 20.1421 3.4100
v  2.5003 16.7280 3.7029
v  2.3312 20.1421 3.4100
v  2.9145 23.5563 -6.3491
v  2.7615 24.5916 -6.0841
v  5.7173 24.5916 -0.9644
v  6.0234 23.5563 -0.9644
v  -3.3033 23.5563 -6.3491
v  -3.1502 24.5916 -6.0841
v  -6.4122 23.5563 -0.9644
v  -6.1061 24.5916 -0.9644
v  -3.3033 23.5563 4.4204
v  -3.1502 24.5916 4.1553
v  2.9145 23.5563 4.4204
v  2.7615 24.5916 4.1553
v  2.9227 22.5692 -6.3633
v  6.0397 22.5692 -0.9644
v  -3.3114 22.5692 -6.3633
v  -6.4285 22.5692 -0.9644
v  -3.3114 22.5692 4.4345
v  2.9227 22.5692 4.4345
v  1.8160 26.5273 -4.4464
v  1.4698 29.4983 -3.8468
v  3.1340 29.4983 -0.9644
v  3.8263 26.5273 -0.9644
v  -2.2047 26.5273 -4.4464
v  -1.8586 29.4983 -3.8468
v  -4.2151 26.5273 -0.9644
v  -3.5227 29.4983 -0.9644
v  -2.2047 26.5273 2.5176
v  -1.8586 29.4983 1.9181
v  1.8160 26.5273 2.5176
v  1.4698 29.4983 1.9181
# 64 vertices

vn 0.0000 0.0000 -1.0000
vn -0.0000 -0.0000 1.0000
vn 0.0000 -0.0000 1.0000
vn 1.0000 0.0001 0.0000
vn 0.9901 -0.0000 0.1404
vn 1.0000 0.0028 -0.0001
vn 0.9959 0.0044 -0.0899
vn 1.0000 0.0000 -0.0000
vn 0.0000 0.0902 -0.9959
vn 0.0000 1.0000 0.0000
vn 0.0000 1.0000 -0.0000
vn -0.9959 0.0044 0.0899
vn -1.0000 0.0000 -0.0000
vn -1.0000 0.0001 -0.0000
vn -0.9901 0.0000 -0.1404
vn -1.0000 0.0028 0.0001
vn 0.0000 0.0902 0.9959
vn 0.9678 -0.2516 0.0000
vn 0.4839 -0.2516 -0.8382
vn 0.4952 -0.1385 -0.8577
vn 0.9904 -0.1385 -0.0000
vn -0.4839 -0.2516 -0.8382
vn -0.4952 -0.1385 -0.8577
vn -0.9678 -0.2516 0.0000
vn -0.9904 -0.1385 0.0000
vn -0.4839 -0.2516 0.8382
vn -0.4952 -0.1385 0.8577
vn 0.4839 -0.2516 0.8382
vn 0.4952 -0.1385 0.8577
vn 0.0000 -1.0000 0.0000
vn 0.0000 -1.0000 -0.0000
vn -0.0000 -1.0000 0.0000
vn 0.4997 0.0321 -0.8656
vn 0.4905 -0.1937 -0.8496
vn 0.9811 -0.1937 0.0000
vn 0.9995 0.0321 0.0000
vn -0.4997 0.0321 -0.8656
vn -0.4905 -0.1937 -0.8496
vn -0.9995 0.0321 0.0000
vn -0.9811 -0.1937 0.0000
vn -0.4997 0.0321 0.8656
vn -0.4905 -0.1937 0.8496
vn 0.4997 0.0321 0.8656
vn 0.4905 -0.1937 0.8496
vn 0.4947 0.1454 -0.8568
vn 0.4400 0.4750 -0.7621
vn 0.8800 0.4750 0.0000
vn 0.9894 0.1453 0.0000
vn -0.4947 0.1454 -0.8568
vn -0.4400 0.4750 -0.7621
vn -0.9894 0.1454 0.0000
vn -0.8800 0.4750 -0.0000
vn -0.4947 0.1453 0.8568
vn -0.4400 0.4750 0.7621
vn 0.4947 0.1454 0.8568
vn 0.4400 0.4750 0.7621
vn 0.4896 -0.2025 -0.8481
vn 0.9793 -0.2025 0.0000
vn -0.4896 -0.2025 -0.8481
vn -0.9793 -0.2025 -0.0000
vn -0.4896 -0.2025 0.8481
vn 0.4896 -0.2025 0.8481
vn 0.4267 0.5211 -0.7392
vn 0.4870 0.2270 -0.8434
vn 0.9739 0.2270 0.0000
vn 0.8535 0.5211 0.0000
vn -0.4267 0.5211 -0.7392
vn -0.4870 0.2270 -0.8434
vn -0.8535 0.5211 0.0000
vn -0.9739 0.2270 0.0000
vn -0.4267 0.5211 0.7392
vn -0.4870 0.2270 0.8434
vn 0.4267 0.5211 0.7392
vn 0.4870 0.2270 0.8434
vn 0.3248 0.9418 -0.0860
vn 0.0000 0.7956 -0.6058
vn -0.4426 0.8595 -0.2555
vn -0.3717 0.9231 0.0984
vn -0.0000 0.7773 0.6291
vn 0.3896 0.8931 0.2249
# 80 vertex normals

vt 0.0200 0.0562 0.0000
vt 0.7739 0.0634 0.0000
vt 0.7739 0.0668 0.0000
vt 0.0200 0.0627 0.0000
vt 0.0202 0.1073 0.0000
vt 0.0201 0.0989 0.0000
vt 0.7743 0.0989 0.0000
vt 0.7743 0.1073 0.0000
vt 0.9798 0.0743 0.0000
vt 0.9800 0.0590 0.0000
vt 0.0206 0.0200 0.0000
vt 0.7746 0.0313 0.0000
vt 0.9800 0.0774 0.0000
vt 0.7757 0.1072 0.0000
vt 0.9484 0.4320 0.1117
vt 0.9499 0.5347 -0.1117
vt 0.7746 0.5405 -0.1117
vt 0.7731 0.4207 -0.1117
vt 0.9553 0.6373 -0.1117
vt 0.7812 0.6602 -0.1117
vt 0.9665 0.7340 -0.1117
vt 0.7955 0.7805 -0.1117
vt 0.9922 0.8182 -0.1117
vt 0.8260 0.9015 -0.1117
vt 0.9731 0.2491 -0.1117
vt 0.9532 0.3347 -0.1117
vt 0.7793 0.2997 -0.1117
vt 0.8018 0.1769 -0.1117
vt 0.0873 0.4066 0.0000
vt 0.0531 0.4066 0.0000
vt 0.0359 0.3769 0.0000
vt 0.0531 0.3472 0.0000
vt 0.0873 0.3472 0.0000
vt 0.1044 0.3769 0.0000
vt 0.5359 0.5485 -0.1117
vt 0.4585 0.5510 -0.1117
vt 0.4537 0.4115 -0.1117
vt 0.5332 0.4122 -0.1117
vt 0.5423 0.6846 -0.1117
vt 0.4630 0.6906 -0.1117
vt 0.5534 0.8200 -0.1117
vt 0.4651 0.8298 -0.1117
vt 0.5717 0.9546 -0.1117
vt 0.4716 0.9629 -0.1117
vt 0.5351 0.2764 -0.1117
vt 0.4463 0.2724 -0.1117
vt 0.4438 0.1392 -0.1117
vt 0.5443 0.1408 -0.1117
vt 0.3866 0.5534 -0.1117
vt 0.3680 0.5540 -0.1117
vt 0.3602 0.4215 -0.1117
vt 0.3802 0.4150 -0.1117
vt 0.3892 0.6920 -0.1117
vt 0.3688 0.6867 -0.1117
vt 0.3761 0.8341 -0.1117
vt 0.3515 0.8220 -0.1117
vt 0.3335 0.9789 -0.1117
vt 0.2878 0.9504 -0.1117
vt 0.3567 0.2742 -0.1117
vt 0.3327 0.2880 -0.1117
vt 0.2604 0.1642 -0.1117
vt 0.3045 0.1326 -0.1117
vt 0.4018 0.5529 -0.1117
vt 0.3962 0.4130 -0.1117
vt 0.4053 0.6929 -0.1117
vt 0.3983 0.8356 -0.1117
vt 0.3849 0.9857 -0.1117
vt 0.3789 0.2712 -0.1117
vt 0.3556 0.1223 -0.1117
vt 0.3080 0.5561 -0.1117
vt 0.2323 0.5585 -0.1117
vt 0.2246 0.4595 -0.1117
vt 0.2991 0.4391 -0.1117
vt 0.3066 0.6734 -0.1117
vt 0.2301 0.6582 -0.1117
vt 0.2883 0.7869 -0.1117
vt 0.2163 0.7505 -0.1117
vt 0.2363 0.8801 -0.1117
vt 0.1751 0.8261 -0.1117
vt 0.2719 0.3273 -0.1117
vt 0.2021 0.3691 -0.1117
vt 0.1558 0.2963 -0.1117
vt 0.2135 0.2380 -0.1117
vt 0.1791 0.5479 -0.0251
vt 0.1321 0.4760 -0.1117
vt 0.1922 0.6215 -0.1117
vt 0.1927 0.6021 -0.1117
vt 0.1817 0.6690 -0.1117
vt 0.1417 0.7946 -0.1117
vt 0.1428 0.7088 -0.1117
vt 0.1505 0.3573 -0.1117
vt 0.1400 0.3409 -0.1117
vt 0.1538 0.3936 -0.1117
# 93 texture coords

g Box001
usemtl 01___Default
s 2
f 1/1/1 2/2/1 3/3/1 4/4/1 
s 4
f 5/5/2 6/6/2 7/7/2 8/8/3 
s 16
f 4/4/4 3/3/5 9/9/6 7/7/7 6/6/8 
s 32
f 3/3/9 2/2/9 10/10/10 9/9/11 
s 64
f 2/2/12 1/1/13 5/11/14 8/12/15 10/10/16 
s 32
f 10/13/10 8/14/17 7/7/17 9/9/11 
s 8
f 11/15/18 12/16/19 13/17/20 14/18/21 
f 12/16/19 15/19/22 16/20/23 13/17/20 
f 15/19/22 17/21/24 18/22/25 16/20/23 
f 17/21/24 19/23/26 20/24/27 18/22/25 
f 19/25/26 21/26/28 22/27/29 20/28/27 
f 21/26/28 11/15/18 14/18/21 22/27/29 
s 1
f 21/29/30 19/30/30 17/31/30 15/32/30 12/33/31 11/34/32 
s 8
f 23/35/33 24/36/34 25/37/35 26/38/36 
f 27/39/37 28/40/38 24/36/34 23/35/33 
f 29/41/39 30/42/40 28/40/38 27/39/37 
f 31/43/41 32/44/42 30/42/40 29/41/39 
f 33/45/43 34/46/44 32/47/42 31/48/41 
f 26/38/36 25/37/35 34/46/44 33/45/43 
f 35/49/45 36/50/46 37/51/47 38/52/48 
f 39/53/49 40/54/50 36/50/46 35/49/45 
f 41/55/51 42/56/52 40/54/50 39/53/49 
f 43/57/53 44/58/54 42/56/52 41/55/51 
f 45/59/55 46/60/56 44/61/54 43/62/53 
f 38/52/48 37/51/47 46/60/56 45/59/55 
f 13/17/20 23/35/33 26/38/36 14/18/21 
f 16/20/23 27/39/37 23/35/33 13/17/20 
f 18/22/25 29/41/39 27/39/37 16/20/23 
f 20/24/27 31/43/41 29/41/39 18/22/25 
f 22/27/29 33/45/43 31/48/41 20/28/27 
f 14/18/21 26/38/36 33/45/43 22/27/29 
f 24/36/34 47/63/57 48/64/58 25/37/35 
f 28/40/38 49/65/59 47/63/57 24/36/34 
f 30/42/40 50/66/60 49/65/59 28/40/38 
f 32/44/42 51/67/61 50/66/60 30/42/40 
f 34/46/44 52/68/62 51/69/61 32/47/42 
f 25/37/35 48/64/58 52/68/62 34/46/44 
f 53/70/63 54/71/64 55/72/65 56/73/66 
f 57/74/67 58/75/68 54/71/64 53/70/63 
f 59/76/69 60/77/70 58/75/68 57/74/67 
f 61/78/71 62/79/72 60/77/70 59/76/69 
f 63/80/73 64/81/74 62/82/72 61/83/71 
f 56/73/66 55/72/65 64/81/74 63/80/73 
f 47/63/57 35/49/45 38/52/48 48/64/58 
f 49/65/59 39/53/49 35/49/45 47/63/57 
f 50/66/60 41/55/51 39/53/49 49/65/59 
f 51/67/61 43/57/53 41/55/51 50/66/60 
f 52/68/62 45/59/55 43/62/53 51/69/61 
f 48/64/58 38/52/48 45/59/55 52/68/62 
f 36/50/46 53/70/63 56/73/66 37/51/47 
f 40/54/50 57/74/67 53/70/63 36/50/46 
f 42/56/52 59/76/69 57/74/67 40/54/50 
f 44/58/54 61/78/71 59/76/69 42/56/52 
f 46/60/56 63/80/73 61/83/71 44/61/54 
f 37/51/47 56/73/66 63/80/73 46/60/56 
s off
f 55/72/75 54/71/75 4/84/75 6/85/75 
f 54/71/76 58/75/76 1/86/76 4/87/76 
f 58/75/77 60/77/77 1/88/77 
f 60/77/78 62/79/78 5/89/78 1/90/78 
f 62/82/79 64/81/79 6/91/79 5/92/79 
f 64/81/80 55/72/80 6/93/80 
# 59 polygons - 2 triangles

